<svg viewBox="0 0 1000 1000" xmlns="http://www.w3.org/2000/svg">
    <defs>
        <linearGradient id="gradient" x1="0%" y1="0%" x2="100%" y2="100%">
            <stop offset="0%" style="stop-color: #00F260;" />
            <stop offset="100%" style="stop-color: #0575E6;" />
        </linearGradient>
    </defs>
    <g>
        <path class="blob blob-1" d="M826.5,583Q772,666,689.5,722Q607,778,500,778Q393,778,319,718.5Q245,659,162.5,579.5Q80,500,152,414Q224,328,319,270Q414,212,500,212Q586,212,671,266.5Q756,321,828.5,410.5Q901,500,826.5,583Z" />
        <path class="blob blob-2" d="M778,589Q718,678,629,718.5Q540,759,450.5,778.5Q361,798,281,739Q201,680,130,600.5Q59,521,129.5,440Q200,359,280,300Q360,241,450,220.5Q540,200,629.5,250Q719,300,778.5,390Q838,480,778,589Z" />
        <path class="blob blob-3" d="M826.5,583Q772,666,689.5,722Q607,778,500,778Q393,778,319,718.5Q245,659,162.5,579.5Q80,500,152,414Q224,328,319,270Q414,212,500,212Q586,212,671,266.5Q756,321,828.5,410.5Q901,500,826.5,583Z" />
    </g>
</svg>